<?xml version="1.0" encoding="UTF-8"?>
<svg width="32px" height="40px" viewBox="0 0 32 40" version="1.1" xmlns="http://www.w3.org/2000/svg" xmlns:xlink="http://www.w3.org/1999/xlink">
    <title>Group 2</title>
    <g id="Page-1" stroke="none" stroke-width="1" fill="none" fill-rule="evenodd">
        <g id="Home-wi.-menu" transform="translate(-124.000000, -17.000000)">
            <g id="Group-17" transform="translate(0.000000, 17.000000)">
                <g id="Group-2" transform="translate(124.500000, 0.000000)">
                    <path d="M7.06257739,26.8885698 C7.60148795,26.9650319 8.13672245,26.9986066 8.66534005,26.993215 C9.01481093,27.0275249 9.37040858,27.0454151 9.73090764,27.0454151 C11.4165042,27.0454151 12.9935344,26.660654 14.3414235,25.991856 C16.1885217,25.1350886 17.6172842,23.663929 18.2848569,21.883245 C18.5632572,21.1654327 18.7144659,20.4000768 18.7144659,19.6055575 C18.7144659,18.8103029 18.5630122,18.0442118 18.2841217,17.3259094 C17.6170391,15.5484113 16.1914626,14.0799474 14.3487757,13.222935 C12.9994161,12.5516863 11.4196901,12.1656998 9.73090764,12.1656998 C9.37040858,12.1656998 9.01481093,12.18359 8.66534005,12.2178999 C8.13672245,12.2125084 7.60124288,12.246083 7.06257739,12.3225451 L7.06796894,12.3149479 C3.77421815,12.7867091 0.6770141,10.5680837 0.0949710842,7.2682061 C-0.498345185,3.89995381 1.74993381,0.688301718 5.1174509,0.0952305192 C8.41806367,-0.487547708 11.5625664,1.66392835 12.2450884,4.92165374 L12.2509701,4.91283119 C13.4067237,10.3894271 18.6088404,14.0321586 24.1498899,13.2459717 L24.1444983,13.2538139 C27.4384942,12.7803373 30.5364335,14.9996979 31.1184765,18.3010459 C31.1959188,18.7404577 31.2238569,19.1769287 31.2081724,19.6055575 C31.2238569,20.0341862 31.1959188,20.4706572 31.1184765,20.909824 C30.5364335,24.2116621 27.4384942,26.4307777 24.1444983,25.9575461 L24.1498899,25.9653883 C18.6088404,25.1789563 13.4067237,28.8216878 12.2509701,34.2982837 L12.2450884,34.2897063 C11.5625664,37.5469415 8.41806367,39.6989077 5.1174509,39.1158844 C1.74993381,38.5230583 -0.498345185,35.3111611 0.0949710842,31.9429088 C0.6770141,28.6430313 3.77421815,26.4244058 7.06796894,26.896167 L7.06257739,26.8885698 Z" id="Fill-13" fill="#D2F7F8"></path>
                    <path d="M24.1444983,26.896167 L24.1498899,26.8885698 C23.6109793,26.9650319 23.0757448,26.9986066 22.5471272,26.993215 C22.1976564,27.0275249 21.8420587,27.0454151 21.4815596,27.0454151 C19.7959631,27.0454151 18.2189328,26.660654 16.8710437,25.991856 C15.0239456,25.1350886 13.5951831,23.663929 12.9276104,21.883245 C12.6492101,21.1654327 12.4982465,20.4000768 12.4982465,19.6055575 C12.4982465,18.8103029 12.6494551,18.0442118 12.9283456,17.3259094 C13.5954282,15.5484113 15.0210047,14.0799474 16.8636916,13.222935 C18.2130511,12.5516863 19.7927771,12.1656998 21.4815596,12.1656998 C21.8420587,12.1656998 22.1976564,12.18359 22.5471272,12.2178999 C23.0757448,12.2125084 23.6112244,12.246083 24.1498899,12.3225451 L24.1444983,12.3149479 C27.4382491,12.7867091 30.5354532,10.5680837 31.1174962,7.2682061 C31.7108125,3.89995381 29.4625335,0.688301718 26.0947713,0.0952305192 C22.7944036,-0.487547708 19.6499009,1.66392835 18.9673789,4.92165374 L18.9614972,4.91283119 C17.8057436,10.3894271 12.6036269,14.0321586 7.06257739,13.2459717 L7.06796894,13.2538139 C3.77397308,12.7803373 0.676033817,14.9996979 0.0939908012,18.3010459 C0.0165484464,18.7404577 -0.0113896184,19.1769287 0.00429490919,19.6055575 C-0.0113896184,20.0341862 0.0165484464,20.4706572 0.0939908012,20.909824 C0.676033817,24.2116621 3.77397308,26.4307777 7.06796894,25.9575461 L7.06257739,25.9653883 C12.6036269,25.1789563 17.8057436,28.8216878 18.9614972,34.2982837 L18.9673789,34.2897063 C19.6499009,37.5469415 22.7944036,39.6989077 26.0947713,39.1158844 C29.4625335,38.5230583 31.7108125,35.3111611 31.1174962,31.9429088 C30.5354532,28.6430313 27.4382491,26.4244058 24.1444983,26.896167" id="Fill-14" fill="#FE666F"></path>
                </g>
            </g>
        </g>
    </g>
</svg>