<?xml version="1.0" encoding="UTF-8"?>
<svg width="176px" height="40px" viewBox="0 0 176 40" version="1.1" xmlns="http://www.w3.org/2000/svg" xmlns:xlink="http://www.w3.org/1999/xlink">
    <title>Conrep Logo RGB_Full Logo</title>
    <g id="Page-1" stroke="none" stroke-width="1" fill="none" fill-rule="evenodd">
        <g id="Home-" transform="translate(-124.000000, -17.000000)">
            <g id="Group-17" transform="translate(0.000000, 17.000000)">
                <g id="Conrep-Logo-RGB_Full-Logo" transform="translate(124.500000, 0.000000)">
                    <path d="M54.1029263,31.8590946 C52.3425831,31.8590946 50.7628571,31.5882915 49.3639933,31.0466851 C47.9643943,30.5050788 46.7797223,29.7095791 45.8097323,28.6604313 C44.8392522,27.6110384 44.0944822,26.3305437 43.5756674,24.8184572 C43.0563625,23.3068609 42.7970777,21.5688192 42.7970777,19.6055575 C42.7970777,17.6422957 43.096064,15.9047442 43.6940366,14.3929028 C44.2917641,12.8810613 45.1100554,11.6003216 46.148175,10.5509287 C47.1858045,9.50153579 48.4045414,8.70603616 49.8038953,8.16442981 C51.2030042,7.62282347 52.7033273,7.3520203 54.3058449,7.3520203 C55.2758349,7.3520203 56.156129,7.42554152 56.946237,7.57209383 C57.735855,7.71913627 58.4240136,7.88259846 59.0109581,8.06272545 C59.5976574,8.24383273 60.0826524,8.43523298 60.4666783,8.63839663 C60.8499689,8.84156028 61.1207721,8.98835765 61.2788427,9.07829861 L60.0265312,12.5649201 C59.4849249,12.2264774 58.7117267,11.9049446 57.7079169,11.6003216 C56.7033719,11.2954536 55.6145226,11.1432647 54.441369,11.1432647 C53.4257958,11.1432647 52.4781072,11.3182452 51.5980582,11.6677161 C50.7180092,12.0181673 49.9563293,12.5426186 49.3132637,13.2418055 C48.669953,13.9414824 48.1675579,14.8217766 47.8068138,15.8821977 C47.4455795,16.9431089 47.2652075,18.1726288 47.2652075,19.5717377 C47.2652075,20.813021 47.4058781,21.952845 47.6884446,22.9907196 C47.970276,24.0288393 48.4045414,24.9257982 48.9914858,25.6815964 C49.5781851,26.4378847 50.3229551,27.024339 51.2255507,27.4416945 C52.1279012,27.8595401 53.2111138,28.0680953 54.4751887,28.0680953 C55.9867851,28.0680953 57.2170402,27.9156613 58.1647288,27.6110384 C59.1126624,27.3064154 59.845669,27.0187024 60.3649739,26.7478992 L61.5158261,30.2342756 C61.2450229,30.4151378 60.878152,30.5955099 60.4157036,30.7758819 C59.95301,30.9567442 59.4055219,31.1312345 58.7742197,31.3005784 C58.1421823,31.4699223 57.431232,31.6052013 56.6416141,31.7066606 C55.851506,31.808365 55.0050317,31.8590946 54.1029263,31.8590946" id="Fill-1" fill="#172B5F"></path>
                    <path d="M54.3060899,7.47455567 C52.7263639,7.47455567 51.226531,7.74511377 49.8482531,8.27863278 C48.4714457,8.81141657 47.2558948,9.60495564 46.2354202,10.6369485 C45.2134752,11.6699217 44.3968995,12.9487009 43.8082396,14.4377507 C43.2185994,15.9280259 42.919613,17.6668028 42.919613,19.6055575 C42.919613,21.547253 43.179388,23.2877454 43.6915859,24.7785107 C44.2023133,26.2670704 44.9451227,27.5451143 45.8996733,28.5771072 C46.8522633,29.6076297 48.032769,30.4001885 49.408106,30.9324821 C50.7863839,31.4660012 52.3658648,31.7365593 54.1029263,31.7365593 C54.9959641,31.7365593 55.8448891,31.6855845 56.6259296,31.5851055 C57.4072151,31.4846265 58.1193907,31.3491024 58.7423605,31.1822092 C59.3694966,31.0140907 59.9174747,30.8388651 60.3711007,30.661679 C60.781104,30.5018929 61.1166059,30.3408814 61.369764,30.1828107 L60.2934133,26.9216544 C59.7782745,27.1760378 59.0759018,27.446841 58.2022246,27.727692 C57.2464487,28.0347657 55.9926668,28.1906307 54.4751887,28.1906307 C53.1986152,28.1906307 52.0881997,27.9759487 51.1740858,27.5529566 C50.2575212,27.1292293 49.4904498,26.5248848 48.8946828,25.7568331 C48.3006314,24.9919673 47.8550927,24.0719718 47.5700755,23.0225788 C47.2865286,21.9810282 47.1426721,20.819883 47.1426721,19.5717377 C47.1426721,18.1652767 47.3272104,16.9105145 47.6908953,15.8427413 C48.0553155,14.771292 48.5706993,13.8684514 49.2230776,13.1589716 C49.875456,12.4494918 50.6594373,11.9093558 51.5527201,11.5540033 C52.4437973,11.2001211 53.4155028,11.0207293 54.441369,11.0207293 C55.6211395,11.0207293 56.7322903,11.1763492 57.7434522,11.4829327 C58.6764365,11.7662345 59.4216966,12.0684068 59.9618325,12.3828325 L61.1286143,9.13441981 C60.9661324,9.04398871 60.7264533,8.91483643 60.4093317,8.7467179 C60.0353538,8.54894581 59.5528095,8.3580357 58.9749327,8.17986927 C58.3948502,8.00170284 57.704731,7.83775051 56.9236905,7.69266863 C56.1441205,7.54783182 55.2633362,7.47455567 54.3060899,7.47455567 Z M54.1029263,31.98163 C52.3354761,31.98163 50.7263416,31.7056803 49.3196355,31.1608881 C47.9092534,30.6151155 46.6981138,29.8017257 45.7197914,28.7435103 C44.7419591,27.6862751 43.9817497,26.3790677 43.459749,24.8581587 C42.9387286,23.3416609 42.6745423,21.5744558 42.6745423,19.6055575 C42.6745423,17.6356788 42.9791652,15.8667582 43.5803238,14.3475647 C44.1812372,12.8276359 45.0159482,11.5211638 46.0611749,10.4646638 C47.1061566,9.40791876 48.3506258,8.59550925 49.7597826,8.05022685 C51.1662436,7.50543458 52.6959751,7.22948493 54.3060899,7.22948493 C55.2782856,7.22948493 56.1742642,7.3042315 56.9685385,7.45151902 C57.7586466,7.59856147 58.4578334,7.7649645 59.0469835,7.94558164 C59.6395645,8.12864948 60.136568,8.32519622 60.5240248,8.53007536 C60.909031,8.73397422 61.1808144,8.88150681 61.3396203,8.97169284 L61.4290711,9.02266756 L60.0904947,12.7494583 L59.9615875,12.6688301 C59.4319896,12.3379846 58.6619773,12.0179222 57.6723817,11.7174654 C56.6842564,11.4177439 55.5971226,11.2658001 54.441369,11.2658001 C53.4466268,11.2658001 52.5053101,11.4393102 51.6431512,11.781674 C50.7844233,12.1235477 50.0308308,12.6426075 49.4034497,13.3248845 C48.7743531,14.009122 48.2761243,14.8827992 47.9229773,15.921654 C47.5678698,16.964185 47.3877428,18.1922345 47.3877428,19.5717377 C47.3877428,20.7980717 47.5286585,21.9376507 47.8065687,22.9583703 C48.0830085,23.9763942 48.514333,24.8672263 49.0882887,25.6063597 C49.6597937,26.3432874 50.3962313,26.9233699 51.2770155,27.3304324 C52.158535,27.7387202 53.2346406,27.9455599 54.4751887,27.9455599 C55.9671794,27.9455599 57.1957191,27.7936161 58.127233,27.4941396 C59.062668,27.1936829 59.7966549,26.9059698 60.3083626,26.6390878 L60.4360444,26.5724286 L61.6613981,30.2845151 L61.5839558,30.336225 C61.3082512,30.5205182 60.930107,30.706772 60.4603064,30.8900849 C59.9983481,31.070457 59.4417924,31.2483783 58.8058338,31.4189476 C58.1720809,31.5885365 57.4491222,31.7262663 56.6570536,31.8284608 C55.8659652,31.9301651 55.0065021,31.98163 54.1029263,31.98163 L54.1029263,31.98163 Z" id="Fill-2" fill="#172B5F"></path>
                    <path d="M68.1501362,19.6055575 C68.1501362,20.8919338 68.3079618,22.0596959 68.624103,23.1090888 C68.9399992,24.1582367 69.3968111,25.0500491 69.9950288,25.7833008 C70.5927563,26.5167975 71.3203713,27.0863419 72.178364,27.4924241 C73.0356215,27.8987514 74.0061016,28.10167 75.0893143,28.10167 C76.1497354,28.10167 77.1086972,27.8987514 77.9666899,27.4924241 C78.8239474,27.0863419 79.5518075,26.5167975 80.1500252,25.7833008 C80.7475076,25.0500491 81.2045646,24.1582367 81.5207058,23.1090888 C81.836602,22.0596959 81.9946726,20.8919338 81.9946726,19.6055575 C81.9946726,18.3194262 81.836602,17.151419 81.5207058,16.1020261 C81.2045646,15.0528783 80.7475076,14.161556 80.1500252,13.4280592 C79.5518075,12.6950526 78.8239474,12.124773 77.9666899,11.7186908 C77.1086972,11.3126086 76.1497354,11.1091999 75.0893143,11.1091999 C74.0061016,11.1091999 73.0356215,11.3126086 72.178364,11.7186908 C71.3203713,12.124773 70.5927563,12.7001991 69.9950288,13.4449691 C69.3968111,14.1897391 68.9399992,15.0813065 68.624103,16.118936 C68.3079618,17.1573007 68.1501362,18.3194262 68.1501362,19.6055575 Z M86.4628024,19.6055575 C86.4628024,21.6144023 86.1635711,23.3855286 85.5658435,24.9199165 C84.9676258,26.4547946 84.1552163,27.7352892 83.128615,28.7618906 C82.1015235,29.7889821 80.8999416,30.5616901 79.5236243,31.0805049 C78.147062,31.5993196 76.6803136,31.8590946 75.1233791,31.8590946 C73.5661996,31.8590946 72.0935695,31.5993196 70.705979,31.0805049 C69.3181434,30.5616901 68.1106798,29.7889821 67.0840785,28.7618906 C66.056987,27.7352892 65.2391859,26.4547946 64.6299401,24.9199165 C64.0206942,23.3855286 63.7158262,21.6144023 63.7158262,19.6055575 C63.7158262,17.5974478 64.0206942,15.831468 64.6299401,14.3081083 C65.2391859,12.7849936 66.0685053,11.504499 67.1178982,10.4663793 C68.1672912,9.42850471 69.3799012,8.64991496 70.7567086,8.13061005 C72.1327809,7.61179529 73.5885011,7.3520203 75.1233791,7.3520203 C76.657522,7.3520203 78.1132422,7.61179529 79.4898046,8.13061005 C80.8661219,8.64991496 82.0677037,9.42850471 83.0947952,10.4663793 C84.1213966,11.504499 84.9396878,12.7849936 85.5489336,14.3081083 C86.1581795,15.831468 86.4628024,17.5974478 86.4628024,19.6055575 L86.4628024,19.6055575 Z" id="Fill-3" fill="#172B5F"></path>
                    <path d="M75.0893143,11.2319803 C74.0296284,11.2319803 73.0677257,11.4329383 72.2308092,11.8294628 C71.3938926,12.2257422 70.6738747,12.7950415 70.0906064,13.5216763 C69.5051324,14.2505167 69.0512613,15.1364474 68.7414919,16.1547163 C68.4304971,17.175436 68.2726716,18.3363361 68.2726716,19.6055575 C68.2726716,20.875269 68.4304971,22.0420508 68.7414919,23.0735536 C69.0512613,24.1033408 69.5051324,24.9887814 70.0898711,25.7058584 C70.6731395,26.421465 71.3934024,26.9851277 72.2308092,27.3816521 C73.0674807,27.7781766 74.0293833,27.9791346 75.0893143,27.9791346 C76.1264537,27.9791346 77.076838,27.7781766 77.9139997,27.3816521 C78.7511614,26.9851277 79.4714243,26.421465 80.0549377,25.7058584 C80.6394314,24.9887814 81.0930574,24.1033408 81.403562,23.0737986 C81.7145568,22.0405804 81.8721373,20.8735535 81.8721373,19.6055575 C81.8721373,18.3375614 81.7145568,17.1707796 81.403562,16.1373163 C81.0935475,15.1087544 80.6396765,14.2233138 80.0549377,13.5055016 C79.4706891,12.7894049 78.7504261,12.2254971 77.9139997,11.8294628 C77.076593,11.4329383 76.1262086,11.2319803 75.0893143,11.2319803 Z M75.0893143,28.2242054 C73.9928678,28.2242054 72.9956749,28.0154051 72.1259189,27.6031961 C71.2551825,27.1909871 70.5062463,26.6047779 69.8999413,25.860498 C69.2946166,25.1186689 68.8260413,24.2048001 68.5069592,23.144379 C68.1888574,22.0898396 68.0276008,20.8990408 68.0276008,19.6055575 C68.0276008,18.3120741 68.1888574,17.126912 68.5069592,16.0834007 C68.8257963,15.0352332 69.2943715,14.1216094 69.8994512,13.368262 C70.5060013,12.6124638 71.2551825,12.0201278 72.1259189,11.6079188 C72.99592,11.1957098 73.9931129,10.9866645 75.0893143,10.9866645 C76.1627242,10.9866645 77.1483987,11.1957098 78.01889,11.6079188 C78.888646,12.0196377 79.6373372,12.606092 80.2448675,13.3506169 C80.8499472,14.0934263 81.3187675,15.00705 81.6380947,16.0667359 C81.9559515,17.1229908 82.117208,18.3137896 82.117208,19.6055575 C82.117208,20.8975704 81.9559515,22.0881241 81.6380947,23.144379 C81.3185225,24.2048001 80.8497021,25.1186689 80.2448675,25.860498 C79.6380724,26.6047779 78.8893813,27.1909871 78.019135,27.6031961 C77.1486438,28.0154051 76.1629692,28.2242054 75.0893143,28.2242054 Z M75.1233791,7.47455567 C73.6108025,7.47455567 72.1563077,7.73384052 70.7998411,8.24530316 C69.4463154,8.75578552 68.2364011,9.5324147 67.2039181,10.5533794 C66.171435,11.5750793 65.3435861,12.8536134 64.7436529,14.3536914 C64.1429845,15.8552399 63.8386066,17.6221999 63.8386066,19.6055575 C63.8386066,21.5891601 64.1432296,23.3620018 64.743898,24.8745784 C65.3440762,26.38691 66.1606519,27.6656891 67.1705885,28.6751355 C68.1795447,29.6845819 69.3833322,30.4553294 70.7488664,30.9658118 C72.1168513,31.4772744 73.5885011,31.7365593 75.1233791,31.7365593 C76.6577671,31.7365593 78.1235352,31.4772744 79.4804919,30.9658118 C80.8342627,30.4555745 82.0324135,29.684827 83.042105,28.6751355 C84.0520415,27.6654441 84.8627355,26.38691 85.4516405,24.8753137 C86.0412808,23.3615117 86.3402671,21.5884248 86.3402671,19.6055575 C86.3402671,17.6221999 86.0358892,15.8552399 85.4352208,14.3536914 C84.8350426,12.8533683 84.0182218,11.5745892 83.0077951,10.5523991 C81.9978586,9.53216963 80.7994626,8.75578552 79.4466721,8.24530316 C78.0899605,7.73384052 76.6352206,7.47455567 75.1233791,7.47455567 Z M75.1233791,31.98163 C73.5590926,31.98163 72.0585244,31.7169536 70.6630916,31.1954431 C69.2644729,30.6724621 68.0310318,29.8828442 66.9973234,28.8484005 C65.963615,27.8151823 65.128659,26.5087102 64.5159822,24.9652546 C63.9037954,23.4235146 63.5935359,21.620284 63.5935359,19.6055575 C63.5935359,17.5908309 63.9040405,15.793237 64.5162272,14.2627702 C65.128659,12.7313231 65.9748883,11.4246059 67.0316333,10.3791341 C68.0886235,9.3339074 69.3274561,8.53865284 70.7133311,8.01591694 C72.0974907,7.49416133 73.581149,7.22948493 75.1233791,7.22948493 C76.6648741,7.22948493 78.1485324,7.49416133 79.532937,8.01591694 C80.9193022,8.53889791 82.1468616,9.33439754 83.1820404,10.3801144 C84.2157488,11.4255862 85.0504597,12.7318133 85.6626465,14.2627702 C86.2748332,15.793237 86.5853378,17.5908309 86.5853378,19.6055575 C86.5853378,21.6190587 86.2807149,23.4220441 85.6800465,24.9645194 C85.0786429,26.5077299 84.2493235,27.8144471 83.21537,28.8484005 C82.1809264,29.8828442 80.9536121,30.6724621 79.5670019,31.195198 C78.1823522,31.7169536 76.6871756,31.98163 75.1233791,31.98163 L75.1233791,31.98163 Z" id="Fill-4" fill="#172B5F"></path>
                    <path d="M106.941649,31.351308 C106.174332,30.0649317 105.31683,28.6832229 104.369141,27.2047111 C103.421453,25.7271796 102.439699,24.2376396 101.424126,22.7365813 C100.408798,21.2362582 99.3763151,19.780538 98.3269222,18.3701558 C97.2777743,16.9600188 96.2791111,15.6905523 95.3314225,14.5620016 L95.3314225,31.351308 L91.1338508,31.351308 L91.1338508,7.89362664 L94.6204723,7.89362664 C95.5228227,8.84156028 96.4933029,9.96422935 97.5316676,11.2616339 C98.5692972,12.5595285 99.6132985,13.9076627 100.662691,15.3067716 C101.711839,16.7061255 102.727412,18.110871 103.709166,19.5210081 C104.690674,20.9316353 105.565087,22.2457046 106.332403,23.4644414 L106.332403,7.89362664 L110.563549,7.89362664 L110.563549,31.351308 L106.941649,31.351308" id="Fill-5" fill="#172B5F"></path>
                    <path d="M107.011249,31.2287727 L110.441014,31.2287727 L110.441014,8.01616201 L106.454938,8.01616201 L106.454938,23.8889039 L106.228738,23.5296302 C105.465833,22.3182455 104.584313,20.993148 103.608442,19.5908532 C102.6311,18.1873331 101.607194,16.7705791 100.564663,15.3800477 C99.5289942,13.9995642 98.4764153,12.6396667 97.435845,11.3380959 C96.4188014,10.0671591 95.4542029,8.94988154 94.5677821,8.01616201 L91.2566312,8.01616201 L91.2566312,31.2287727 L95.2088871,31.2287727 L95.2088871,14.2255194 L95.4250395,14.4830888 C96.3700323,15.6082086 97.3794787,16.891399 98.4254406,18.2968797 C99.4704223,19.7016252 100.513443,21.1722947 101.525831,22.6679615 C102.535277,24.1601972 103.526588,25.6644414 104.472316,27.138542 C105.401869,28.5886256 106.255696,29.9642076 107.011249,31.2287727 Z M110.686085,31.4738434 L106.872049,31.4738434 L106.836514,31.4142912 C106.073608,30.1355121 105.208754,28.7415497 104.265967,27.2708802 C103.321464,25.7982501 102.331133,24.2959664 101.322912,22.8054462 C100.312485,21.3127203 99.2714248,19.8449916 98.2286488,18.4431869 C97.2650307,17.1482331 96.3327815,15.9579245 95.4539579,14.8997091 L95.4539579,31.4738434 L91.0115605,31.4738434 L91.0115605,7.77109127 L94.6729174,7.77109127 L94.7091879,7.80907723 C95.6100679,8.75554045 96.5918213,9.89144334 97.6272452,11.1851718 C98.669286,12.4887031 99.7235804,13.8505612 100.76072,15.2332503 C101.804966,16.6257423 102.830832,18.044947 103.809645,19.4509178 C104.692635,20.7198941 105.498672,21.9258873 106.209868,23.0419394 L106.209868,7.77109127 L110.686085,7.77109127 L110.686085,31.4738434 L110.686085,31.4738434 Z" id="Fill-6" fill="#172B5F"></path>
                    <path d="M122.952121,11.3461833 C122.04928,11.3461833 121.214324,11.3802481 120.447253,11.4476426 L120.447253,19.0301314 L122.309055,19.0301314 C123.346685,19.0301314 124.260798,18.9740102 125.050906,18.8607875 C125.840524,18.7483 126.5005,18.5451364 127.031078,18.2517867 C127.561166,17.958437 127.961857,17.563628 128.23266,17.0668696 C128.503463,16.5708464 128.638742,15.938809 128.638742,15.1712474 C128.638742,14.449269 128.503463,13.8400232 128.23266,13.3435098 C127.961857,12.8472416 127.572684,12.4524326 127.064898,12.1585928 C126.557111,11.8657332 125.953257,11.6566879 125.253825,11.532437 C124.554148,11.4086763 123.786832,11.3461833 122.952121,11.3461833 Z M122.647498,7.65664323 C126.032415,7.65664323 128.622077,8.2776525 130.415995,9.51844567 C132.210158,10.759729 133.107117,12.6553512 133.107117,15.2050672 C133.107117,18.3868207 131.538419,20.5422178 128.402004,21.6705235 C128.830387,22.1895834 129.315873,22.8213758 129.857479,23.5659007 C130.399085,24.3106707 130.95172,25.1176886 131.516118,25.9862193 C132.07978,26.8552402 132.621387,27.7463174 133.140937,28.6604313 C133.659752,29.5743001 134.122445,30.471259 134.528772,31.351308 L129.75602,31.351308 C129.326901,30.5388985 128.864207,29.7210975 128.368184,28.8974147 C127.871426,28.0737319 127.369521,27.2723506 126.861734,26.4940059 C126.353948,25.7154162 125.851553,24.9821645 125.355529,24.2937608 C124.858771,23.6056021 124.396077,22.9907196 123.967694,22.4488682 C123.651307,22.4716598 123.380504,22.4829331 123.155284,22.4829331 C122.929329,22.4829331 122.715137,22.4829331 122.512219,22.4829331 L120.447253,22.4829331 L120.447253,31.351308 L116.182286,31.351308 L116.182286,8.23206934 C117.219916,8.00684932 118.32592,7.85441532 119.499564,7.77525747 C120.672718,7.69634469 121.722111,7.65664323 122.647498,7.65664323 L122.647498,7.65664323 Z" id="Fill-7" fill="#172B5F"></path>
                    <path d="M120.569788,18.907596 L122.309055,18.907596 C123.338107,18.907596 124.254672,18.8509846 125.033506,18.7394775 C125.804744,18.6296858 126.456877,18.429463 126.971771,18.1444457 C127.478822,17.8638397 127.867014,17.4817744 128.125319,17.0082977 C128.384849,16.5326154 128.516452,15.914547 128.516452,15.1712474 C128.516452,14.473531 128.384849,13.8782542 128.125319,13.4020817 C127.866524,12.9281149 127.489115,12.5455595 127.00363,12.2647084 C126.510303,11.9799362 125.914536,11.7740768 125.232504,11.6530118 C124.540914,11.5307215 123.773843,11.4687186 122.952121,11.4687186 C122.10099,11.4687186 121.300344,11.4995976 120.569788,11.56013 L120.569788,18.907596 Z M122.309055,19.1526667 L120.324717,19.1526667 L120.324717,11.3354002 L120.436469,11.3255973 C121.204031,11.2582029 122.05026,11.2236479 122.952121,11.2236479 C123.788057,11.2236479 124.569588,11.2871212 125.275391,11.4118622 C125.985361,11.5380737 126.608086,11.7534908 127.126166,12.0524772 C127.651352,12.3561198 128.05964,12.7707795 128.340246,13.2846929 C128.619872,13.7973808 128.761523,14.4321141 128.761523,15.1712474 C128.761523,15.955964 128.619872,16.6134888 128.340246,17.1256866 C128.059395,17.6403352 127.638854,18.055485 127.090385,18.3588826 C126.549269,18.658359 125.868953,18.8681396 125.068061,18.9823426 C124.277953,19.0953202 123.349625,19.1526667 122.309055,19.1526667 Z M129.829786,31.2287727 L134.336637,31.2287727 C133.953591,30.4119519 133.515895,29.5691536 133.034331,28.7209638 C132.518702,27.8132217 131.973175,26.9157727 131.413433,26.0528786 C130.849035,25.1843479 130.292234,24.3719383 129.75847,23.6379515 C129.224461,22.9037195 128.73628,22.2682511 128.307406,21.748456 L128.196635,21.6141573 L128.360587,21.5550952 C131.428873,20.4512966 132.984582,18.3147699 132.984582,15.2050672 C132.984582,12.7097569 132.096935,10.8305544 130.346395,9.61916974 C128.580905,8.3982273 125.990753,7.7791786 122.647498,7.7791786 C121.732649,7.7791786 120.676149,7.81888006 119.507651,7.89754777 C118.381551,7.9735197 117.30471,8.1193368 116.304822,8.33132299 L116.304822,31.2287727 L120.324717,31.2287727 L120.324717,22.3603977 L123.155284,22.3603977 C123.379524,22.3603977 123.649837,22.3488794 123.958871,22.326823 L124.02357,22.3219216 L124.063762,22.3728963 C124.49239,22.9147477 124.960475,23.5369823 125.455028,24.2219551 C125.956198,24.917956 126.463984,25.6597851 126.964419,26.4271016 C127.466814,27.1973589 127.974355,28.0070727 128.473074,28.8339414 C128.957089,29.6380185 129.413411,30.4433209 129.829786,31.2287727 Z M134.720173,31.4738434 L129.682008,31.4738434 L129.647698,31.4086546 C129.223971,30.606293 128.758337,29.7826102 128.263294,28.9603979 C127.766045,28.1359799 127.259974,27.3287169 126.759295,26.5609102 C126.260821,25.7967797 125.75524,25.0581364 125.256031,24.3653214 C124.779123,23.7046107 124.326967,23.102717 123.911573,22.5755698 C123.623614,22.5954205 123.369476,22.6054684 123.155284,22.6054684 L120.569788,22.6054684 L120.569788,31.4738434 L116.059751,31.4738434 L116.059751,8.13330583 L116.156309,8.11247481 C117.194919,7.88700973 118.316853,7.73237009 119.491232,7.65296717 C120.66512,7.57405439 121.727012,7.53410786 122.647498,7.53410786 C126.041482,7.53410786 128.678689,8.1678608 130.485595,9.41772159 C132.306471,10.6773852 133.229652,12.6247173 133.229652,15.2050672 C133.229652,18.3738319 131.673943,20.5667249 128.605903,21.7259095 C129.01076,22.2234031 129.464631,22.8172096 129.956488,23.4938499 C130.492947,24.2312677 131.052199,25.0473533 131.618802,25.9195601 C132.18124,26.7861302 132.729218,27.6879906 133.247543,28.5998988 C133.766602,29.5142578 134.235178,30.422735 134.640035,31.3000883 L134.720173,31.4738434 L134.720173,31.4738434 Z" id="Fill-8" fill="#172B5F"></path>
                    <polyline id="Fill-9" fill="#172B5F" points="137.84605 31.351308 137.84605 7.89362664 152.909078 7.89362664 152.909078 11.5155272 142.111016 11.5155272 142.111016 17.303853 151.724161 17.303853 151.724161 20.857869 142.111016 20.857869 142.111016 27.7294075 153.721488 27.7294075 153.721488 31.351308 137.84605 31.351308"></polyline>
                    <path d="M137.968585,31.2287727 L153.598952,31.2287727 L153.598952,27.8519429 L141.988481,27.8519429 L141.988481,20.7353336 L151.601626,20.7353336 L151.601626,17.4263884 L141.988481,17.4263884 L141.988481,11.3929918 L152.786543,11.3929918 L152.786543,8.01616201 L137.968585,8.01616201 L137.968585,31.2287727 Z M153.844023,31.4738434 L137.723515,31.4738434 L137.723515,7.77109127 L153.031614,7.77109127 L153.031614,11.6380625 L142.233551,11.6380625 L142.233551,17.1813177 L151.846696,17.1813177 L151.846696,20.9804043 L142.233551,20.9804043 L142.233551,27.6068722 L153.844023,27.6068722 L153.844023,31.4738434 L153.844023,31.4738434 Z" id="Fill-10" fill="#172B5F"></path>
                    <path d="M164.621009,11.3461833 C163.537796,11.3461833 162.645984,11.3802481 161.946797,11.4476426 L161.946797,19.4364586 L164.011518,19.4364586 C166.064721,19.4364586 167.644692,19.1485005 168.750696,18.5730744 C169.855965,17.9978934 170.409335,16.9092891 170.409335,15.3067716 C170.409335,14.5397001 170.262292,13.8966345 169.969188,13.3773296 C169.675593,12.8585148 169.269511,12.4524326 168.750696,12.1585928 C168.231146,11.8657332 167.616754,11.6566879 166.905803,11.532437 C166.194853,11.4086763 165.433418,11.3461833 164.621009,11.3461833 Z M164.316386,7.65664323 C167.723359,7.65664323 170.335569,8.2776525 172.152523,9.51844567 C173.968742,10.759729 174.87722,12.7001991 174.87722,15.3405913 C174.87722,16.7171537 174.6346,17.896189 174.149605,18.8779424 C173.664119,19.8594508 172.959051,20.6608321 172.033909,21.2811061 C171.108522,21.9021154 169.980216,22.3589273 168.648992,22.6520319 C167.317277,22.9456266 165.793918,23.0921789 164.079403,23.0921789 L161.946797,23.0921789 L161.946797,31.351308 L157.681831,31.351308 L157.681831,8.23206934 C158.674612,8.00684932 159.774735,7.85441532 160.982199,7.77525747 C162.188927,7.69634469 163.300813,7.65664323 164.316386,7.65664323 L164.316386,7.65664323 Z" id="Fill-11" fill="#172B5F"></path>
                    <path d="M162.069332,19.3139233 L164.011763,19.3139233 C166.035557,19.3139233 167.610872,19.0281708 168.694085,18.4645081 C169.75083,17.9143243 170.286799,16.8519426 170.286799,15.3067716 C170.286799,14.5651875 170.143923,13.936336 169.862337,13.437617 C169.581486,12.9408586 169.187167,12.5465398 168.690164,12.2651986 C168.185073,11.9801813 167.577542,11.7740768 166.884727,11.6532569 C166.181865,11.5307215 165.420185,11.4687186 164.621009,11.4687186 C163.60323,11.4687186 162.745728,11.4993525 162.069332,11.5593948 L162.069332,19.3139233 Z M164.011763,19.558994 L161.824262,19.558994 L161.824262,11.3363804 L161.935034,11.3258424 C162.635201,11.2582029 163.539022,11.2236479 164.621009,11.2236479 C165.434154,11.2236479 166.210048,11.2871212 166.92688,11.4116172 C167.647142,11.5375835 168.281141,11.7530007 168.810738,12.051987 C169.346953,12.3553846 169.772396,12.7810725 170.075794,13.3170422 C170.378456,13.853257 170.53187,14.5225452 170.53187,15.3067716 C170.53187,16.9507061 169.951543,18.0861189 168.807307,18.6816408 C167.688805,19.2636838 166.075259,19.558994 164.011763,19.558994 Z M157.804366,31.2287727 L161.824262,31.2287727 L161.824262,22.9696436 L164.079403,22.9696436 C165.777988,22.9696436 167.306739,22.822356 168.622769,22.5324373 C169.932427,22.2442342 171.057057,21.7888927 171.965779,21.1794018 C172.86813,20.5743221 173.565846,19.7815183 174.039813,18.8235367 C174.51427,17.8631045 174.754929,16.6911762 174.754929,15.3405913 C174.754929,12.7558302 173.85601,10.8310446 172.083168,9.61941482 C170.295377,8.39847237 167.682188,7.7791786 164.316386,7.7791786 C163.311351,7.7791786 162.192358,7.81888006 160.990041,7.89754777 C159.833307,7.9735197 158.762103,8.11909173 157.804366,8.33034271 L157.804366,31.2287727 Z M162.069332,31.4738434 L157.559295,31.4738434 L157.559295,8.13428611 L157.654628,8.11271989 C158.649125,7.88700973 159.765667,7.73237009 160.974111,7.65296717 C162.18182,7.57405439 163.306204,7.53410786 164.316386,7.53410786 C167.732427,7.53410786 170.39218,8.16761573 172.221633,9.41723145 C174.065055,10.6771401 175,12.6700554 175,15.3405913 C175,16.7291621 174.750763,17.937606 174.259396,18.9321031 C173.766314,19.9290508 173.040659,20.7537139 172.102284,21.3828105 C171.168074,22.0094564 170.015261,22.4768063 168.675459,22.7716264 C167.342029,23.0657113 165.795633,23.2147143 164.079403,23.2147143 L162.069332,23.2147143 L162.069332,31.4738434 L162.069332,31.4738434 Z" id="Fill-12" fill="#172B5F"></path>
                    <path d="M7.06796894,26.896167 L7.06257739,26.8885698 C7.60148795,26.9650319 8.13672245,26.9986066 8.66534005,26.993215 C9.01481093,27.0275249 9.37040858,27.0454151 9.73090764,27.0454151 C11.4165042,27.0454151 12.9935344,26.660654 14.3414235,25.991856 C16.1885217,25.1350886 17.6172842,23.663929 18.2848569,21.883245 C18.5632572,21.1654327 18.7144659,20.4000768 18.7144659,19.6055575 C18.7144659,18.8103029 18.5630122,18.0442118 18.2841217,17.3259094 C17.6170391,15.5484113 16.1914626,14.0799474 14.3487757,13.222935 C12.9994161,12.5516863 11.4196901,12.1656998 9.73090764,12.1656998 C9.37040858,12.1656998 9.01481093,12.18359 8.66534005,12.2178999 C8.13672245,12.2125084 7.60124288,12.246083 7.06257739,12.3225451 L7.06796894,12.3149479 C3.77421815,12.7867091 0.6770141,10.5680837 0.0949710842,7.2682061 C-0.498345185,3.89995381 1.74993381,0.688301718 5.1174509,0.0952305192 C8.41806367,-0.487547708 11.5625664,1.66392835 12.2450884,4.92165374 L12.2509701,4.91283119 C13.4067237,10.3894271 18.6088404,14.0321586 24.1498899,13.2459717 L24.1444983,13.2538139 C27.4384942,12.7803373 30.5364335,14.9996979 31.1184765,18.3010459 C31.1959188,18.7404577 31.2238569,19.1769287 31.2081724,19.6055575 C31.2238569,20.0341862 31.1959188,20.4706572 31.1184765,20.909824 C30.5364335,24.2116621 27.4384942,26.4307777 24.1444983,25.9575461 L24.1498899,25.9653883 C18.6088404,25.1789563 13.4067237,28.8216878 12.2509701,34.2982837 L12.2450884,34.2897063 C11.5625664,37.5469415 8.41806367,39.6989077 5.1174509,39.1158844 C1.74993381,38.5230583 -0.498345185,35.3111611 0.0949710842,31.9429088 C0.6770141,28.6430313 3.77421815,26.4244058 7.06796894,26.896167" id="Fill-13" fill="#D2F7F8"></path>
                    <path d="M24.1444983,26.896167 L24.1498899,26.8885698 C23.6109793,26.9650319 23.0757448,26.9986066 22.5471272,26.993215 C22.1976564,27.0275249 21.8420587,27.0454151 21.4815596,27.0454151 C19.7959631,27.0454151 18.2189328,26.660654 16.8710437,25.991856 C15.0239456,25.1350886 13.5951831,23.663929 12.9276104,21.883245 C12.6492101,21.1654327 12.4982465,20.4000768 12.4982465,19.6055575 C12.4982465,18.8103029 12.6494551,18.0442118 12.9283456,17.3259094 C13.5954282,15.5484113 15.0210047,14.0799474 16.8636916,13.222935 C18.2130511,12.5516863 19.7927771,12.1656998 21.4815596,12.1656998 C21.8420587,12.1656998 22.1976564,12.18359 22.5471272,12.2178999 C23.0757448,12.2125084 23.6112244,12.246083 24.1498899,12.3225451 L24.1444983,12.3149479 C27.4382491,12.7867091 30.5354532,10.5680837 31.1174962,7.2682061 C31.7108125,3.89995381 29.4625335,0.688301718 26.0947713,0.0952305192 C22.7944036,-0.487547708 19.6499009,1.66392835 18.9673789,4.92165374 L18.9614972,4.91283119 C17.8057436,10.3894271 12.6036269,14.0321586 7.06257739,13.2459717 L7.06796894,13.2538139 C3.77397308,12.7803373 0.676033817,14.9996979 0.0939908012,18.3010459 C0.0165484464,18.7404577 -0.0113896184,19.1769287 0.00429490919,19.6055575 C-0.0113896184,20.0341862 0.0165484464,20.4706572 0.0939908012,20.909824 C0.676033817,24.2116621 3.77397308,26.4307777 7.06796894,25.9575461 L7.06257739,25.9653883 C12.6036269,25.1789563 17.8057436,28.8216878 18.9614972,34.2982837 L18.9673789,34.2897063 C19.6499009,37.5469415 22.7944036,39.6989077 26.0947713,39.1158844 C29.4625335,38.5230583 31.7108125,35.3111611 31.1174962,31.9429088 C30.5354532,28.6430313 27.4382491,26.4244058 24.1444983,26.896167" id="Fill-14" fill="#FE666F"></path>
                </g>
            </g>
        </g>
    </g>
</svg>